<?xml version="1.0" ?><svg height="60px" version="1.1" viewBox="0 0 60 60" width="60px" xmlns="http://www.w3.org/2000/svg" xmlns:xlink="http://www.w3.org/1999/xlink"><title/><desc/><defs/><g fill="none" fill-rule="evenodd" id="Page-1" stroke="none" stroke-width="1"><g id="Social_icons" transform="translate(-622.000000, -1455.000000)"><g id="ProductHunt" transform="translate(622.000000, 1455.000000)"><path d="M60,30 C60,46.5685 46.5685,60 30,60 C13.4315,60 0,46.5685 0,30 C0,13.4315 13.4315,0 30,0 C46.5685,0 60,13.4315 60,30" fill="#DA552F" id="Fill-1"/><path d="M34.36875,30 L34.36875,30.00025 L25.7625,30.00025 L25.7625,21.00025 L34.36875,21.00025 L34.36875,21 C36.8850656,21 38.925,23.01475 38.925,25.5 C38.925,27.98525 36.8850656,30 34.36875,30 M34.36875,15 L34.36875,15.00025 L19.6875,15 L19.6875,45 L25.7625,45 L25.7625,36.00025 L34.36875,36.00025 L34.36875,36 C40.2402375,36 45,31.299 45,25.5 C45,19.701 40.2402375,15 34.36875,15" fill="#FFFFFF" id="Fill-3"/></g></g></g></svg>